<?xml version="1.0" encoding="utf-8"?>
<!-- Generator: Adobe Illustrator 19.0.0, SVG Export Plug-In . SVG Version: 6.00 Build 0)  -->
<svg version="1.0" id="Calque_1" xmlns="http://www.w3.org/2000/svg" xmlns:xlink="http://www.w3.org/1999/xlink" x="0px" y="0px"
	 viewBox="0 0 50 50" enable-background="new 0 0 50 50" xml:space="preserve">
<g>
	<path d="M33.2,2.4c0.4,0.2,0.9,0.3,1.3,0.5c1.2,0.7,1.7,1.7,1.7,2.9c0,1.1,0,2.3,0,3.5c0.2,0,0.4,0,0.5,0c1,0.1,1.6,0.7,1.6,1.6
		c0,0.4,0,0.8,0,1.2c0.2,0,0.3,0,0.5,0c1,0,2.1,0,3.1,0c0.9,0,1.7,0.6,1.7,1.5c0,3.3,0,6.6,0,9.9c0,0.9-0.7,1.5-1.8,1.5
		c-1.7,0-3.3,0-5,0c-0.2,0-0.4,0-0.6,0c0,0.2,0,0.3,0,0.5c0,1.7,0,3.3,0,5c0,0.1,0,0.3,0,0.4c-0.1,0.4-0.3,0.6-0.7,0.6
		c-0.4,0-0.7-0.3-0.7-0.7c0-0.4,0-0.9,0-1.3c0-1.3,0-2.7,0-4c0-0.2,0-0.3,0-0.5c-0.3,0-0.6,0-0.9,0c0,0.2,0,0.4,0,0.6
		c0,6.1,0,12.1,0,18.2c0,0.1,0,0.3,0,0.4c-0.1,0.7-0.5,1.1-1.2,1.1c-5,0-9.9,0-14.9,0c-0.5,0-0.8-0.3-0.8-0.7c0-0.4,0.3-0.7,0.9-0.7
		c4.7,0,9.4,0,14.1,0c0.2,0,0.4,0,0.6,0c0-6.4,0-12.7,0-19c-0.2,0-0.4,0-0.6,0c-2.3,0-4.6,0-6.9,0c-1.4,0-2-0.6-2-1.9
		c0-3.1,0-6.2,0-9.2c0-1.3,0.6-1.8,1.9-1.8c0.7,0,1.4,0,2.2,0c0.5,0,0.8,0.3,0.8,0.7c0,0.4-0.3,0.7-0.8,0.7c-0.7,0-1.5,0-2.2,0
		c-0.4,0-0.5,0.1-0.5,0.4c0,3.1,0,6.3,0,9.4c0,0.4,0.1,0.5,0.5,0.5c5.6,0,11.3,0,16.9,0c0.4,0,0.5-0.2,0.5-0.5c0-3.1,0-6.2,0-9.2
		c0-0.4-0.1-0.6-0.6-0.6c-3.6,0-7.3,0-10.9,0c-0.1,0-0.3,0-0.4,0c-0.4,0-0.7-0.3-0.7-0.6c0-0.4,0.3-0.7,0.7-0.7c0.6,0,1.1,0,1.7,0
		c0.1,0,0.2,0,0.4,0c0-2,0-4.1,0-6.1c-0.1,0-0.2,0-0.3,0c-1.3,0-2.7,0-4,0c-0.3,0-0.4,0.1-0.5,0.3c-0.7,1.9-1.2,1.8-2.9,1.8
		c-1.8,0-3.5,0-5.3,0c-1,0-1.5-0.3-1.8-1.2c-0.4-1-0.4-1-1.5-1c-1.2,0-2.4,0-3.7,0c0,12.7,0,25.4,0,38.2c0.6,0,1.2,0,1.8,0
		c0.6,0,0.9,0.3,0.9,0.7c0,0.4-0.3,0.6-0.9,0.6c-0.7,0-1.3,0-2,0c-0.8,0-1.2-0.4-1.3-1.1c0-0.1,0-0.2,0-0.3c0-12.6,0-25.3,0-37.9
		c0-0.3,0-0.6,0.2-0.9c0.2-0.4,0.6-0.6,1-0.6c1.7,0,3.4,0,5.1,0c0.5,0,0.9,0.2,1.1,0.7c0.2,0.4,0.3,0.8,0.5,1.1
		c0.1,0.1,0.3,0.3,0.5,0.3c2,0,4.1,0,6.1,0c0.2,0,0.4-0.2,0.5-0.3c0.2-0.3,0.3-0.7,0.4-1c0.2-0.5,0.6-0.8,1.2-0.8c1.6,0,3.3,0,4.9,0
		c0.9,0,1.4,0.4,1.4,1.3c0,1.9,0,3.8,0,5.7c0,0.2,0,0.3,0,0.5c0.3,0,0.6,0,0.9,0c0-0.2,0-0.3,0-0.4c0-1.9,0-3.8,0-5.7
		c0-1.5-0.8-2.3-2.4-2.3c-6.7,0-13.3,0-20,0c-1.5,0-2.4,0.8-2.4,2.2c0,12.7,0,25.4,0,38.1c0,1.4,0.9,2.2,2.4,2.2c6.7,0,13.4,0,20,0
		c1.5,0,2.4-0.8,2.4-2.2c0-3.3,0-6.6,0-9.9c0-0.1,0-0.3,0-0.4c0-0.3,0.3-0.5,0.6-0.6c0.4,0,0.6,0.1,0.7,0.5c0,0.2,0,0.3,0,0.5
		c0,3.3,0,6.6,0,9.9c0,1.8-1,3-2.9,3.5c0,0-0.1,0-0.1,0.1c-7.2,0-14.4,0-21.6,0c-2.4-0.8-3-1.7-3-4c0-6.6,0-13.3,0-19.9
		c0-0.2,0-0.4,0-0.6c-0.1,0-0.2,0-0.3,0c-1.3,0-1.9-0.6-1.9-1.8c0-0.9,0-1.9,0-2.8c0-1.4,0.5-1.9,2-2c0,0,0.1,0,0.1,0
		c0-0.2,0-0.4,0-0.6c-0.2,0-0.4,0-0.5,0c-0.9-0.1-1.6-0.7-1.6-1.6c0-1.1,0-2.3,0-3.4C6.4,10,7,9.4,8,9.3c0.2,0,0.4,0,0.6,0
		c0-0.2,0-0.4,0-0.5c0-1,0-2,0-3c0-1.6,1.1-2.9,2.6-3.3c0.1,0,0.2-0.1,0.4-0.1C18.8,2.4,26,2.4,33.2,2.4z M8.5,14.5
		c0-1.3,0-2.6,0-3.9c-0.7,0-0.7,0-0.7,0.6c0,0.9,0,1.8,0,2.8C7.8,14.6,7.8,14.6,8.5,14.5z M8.5,21.8c0-1.3,0-2.6,0-3.9
		c-0.7,0-0.7,0-0.7,0.6c0,0.9,0,1.8,0,2.8C7.8,21.8,7.8,21.8,8.5,21.8z M36.9,12.1c0-0.3,0-0.6,0-0.9c0-0.6-0.1-0.6-0.7-0.5
		c0,0.5,0,0.9,0,1.4C36.5,12.1,36.7,12.1,36.9,12.1z"/>
	<path id="XMLID_40_" d="M23.7,32.5c1.9,0,3.9,0,5.8,0c0.5,0,0.8,0.3,0.8,0.6c0,0.4-0.3,0.6-0.8,0.7c-0.1,0-0.3,0-0.4,0
		c-2.2,0-4.3,0-6.5,0c-1.5,0-3,0-4.5,0c-0.1,0-0.3,0-0.4,0c-0.4-0.1-0.6-0.3-0.6-0.7c0-0.4,0.3-0.6,0.7-0.6c0.7,0,1.4,0,2.1,0
		C21.2,32.5,22.4,32.5,23.7,32.5z"/>
	<path id="XMLID_39_" d="M23.7,35.3c1.9,0,3.8,0,5.7,0c0.6,0,0.9,0.2,0.9,0.7c0,0.4-0.3,0.7-0.9,0.7c-3.8,0-7.5,0-11.3,0
		c-0.1,0-0.1,0-0.2,0c-0.5,0-0.7-0.3-0.7-0.7c0-0.4,0.3-0.6,0.8-0.6C19.8,35.3,21.7,35.3,23.7,35.3z"/>
	<path id="XMLID_38_" d="M22.6,31c-1.5,0-3,0-4.5,0c-0.2,0-0.4,0-0.5,0c-0.4-0.1-0.5-0.4-0.5-0.7c0-0.3,0.3-0.5,0.6-0.6
		c0.1,0,0.2,0,0.3,0c3.1,0,6.1,0,9.2,0c0,0,0.1,0,0.1,0c0.5,0,0.8,0.3,0.8,0.7c0,0.4-0.3,0.7-0.8,0.7c-1.3,0-2.5,0-3.8,0
		C23.3,31,22.9,31,22.6,31z"/>
	<path id="XMLID_37_" d="M22.4,41.2c1.2,0,2.3,0,3.5,0c0.3,0,0.6,0.1,0.8,0.4c0.2,0.4-0.1,0.9-0.6,0.9c-0.4,0-0.9,0-1.3,0
		c-1.8,0-3.7,0-5.5,0c-0.2,0-0.3,0-0.5,0c-0.4,0-0.7-0.3-0.7-0.7c0-0.4,0.3-0.6,0.7-0.6c0.8,0,1.5,0,2.3,0
		C21.5,41.2,21.9,41.2,22.4,41.2z"/>
	<path id="XMLID_36_" d="M38.1,18.6c-0.6-0.6-1.2-1.1-1.8-1.6c-0.4-0.4-0.5-0.8-0.1-1.1c0.3-0.3,0.7-0.3,1.1,0.1
		c0.7,0.6,1.5,1.3,2.2,1.9c0.5,0.5,0.5,0.8,0,1.2c-0.7,0.7-1.4,1.3-2.2,1.9c-0.4,0.4-0.8,0.4-1.1,0.1c-0.3-0.3-0.3-0.7,0.1-1
		C36.9,19.7,37.5,19.1,38.1,18.6z"/>
	<path id="XMLID_35_" d="M28.4,18.6c0.6,0.5,1.2,1.1,1.8,1.6c0.4,0.4,0.5,0.8,0.2,1.1c-0.3,0.3-0.7,0.3-1.1-0.1
		c-0.8-0.7-1.5-1.3-2.2-2c-0.4-0.4-0.4-0.7,0-1.1c0.8-0.7,1.5-1.4,2.3-2c0.4-0.3,0.8-0.4,1.1-0.1c0.3,0.3,0.3,0.7-0.1,1
		c-0.3,0.3-0.6,0.5-0.9,0.8C29,18,28.7,18.3,28.4,18.6z"/>
	<path id="XMLID_34_" d="M18,17.9c-0.9,0-1.7,0-2.6,0c-0.5,0-0.8-0.2-0.8-0.6c0-0.4,0.3-0.7,0.8-0.7c1.8,0,3.5,0,5.3,0
		c0.5,0,0.8,0.3,0.8,0.7c0,0.4-0.3,0.6-0.8,0.7C19.7,17.9,18.9,17.9,18,17.9z"/>
	<path id="XMLID_31_" d="M18,20.8c-0.9,0-1.7,0-2.6,0c-0.6,0-0.9-0.2-0.9-0.6c0-0.4,0.3-0.7,0.9-0.7c1.7,0,3.5,0,5.2,0
		c0.5,0,0.9,0.3,0.9,0.7c0,0.4-0.3,0.6-0.9,0.6C19.7,20.8,18.9,20.8,18,20.8z"/>
	<path id="XMLID_10_" d="M17.9,15.1c-0.9,0-1.7,0-2.6,0c-0.5,0-0.8-0.2-0.8-0.6c0-0.4,0.3-0.7,0.8-0.7c1.8,0,3.5,0,5.3,0
		c0.5,0,0.8,0.3,0.8,0.7c0,0.4-0.3,0.6-0.8,0.6C19.7,15.1,18.8,15.1,17.9,15.1z"/>
	<path id="XMLID_9_" d="M17.9,23.6c-0.8,0-1.7,0-2.5,0c-0.6,0-0.9-0.2-0.9-0.6c0-0.4,0.3-0.7,0.9-0.7c1.7,0,3.5,0,5.2,0
		c0.5,0,0.9,0.3,0.9,0.7c0,0.4-0.3,0.6-0.9,0.6C19.7,23.6,18.8,23.6,17.9,23.6z"/>
	<path id="XMLID_8_" d="M32.5,21.4c-0.7,0-1-0.4-0.8-0.9c0.2-0.4,0.4-0.9,0.5-1.3c0.4-1,0.8-2,1.3-2.9c0.2-0.5,0.6-0.7,1-0.5
		c0.4,0.2,0.6,0.5,0.3,1c-0.6,1.4-1.1,2.7-1.8,4.1C32.9,21.1,32.6,21.3,32.5,21.4z"/>
	<path id="XMLID_7_" d="M19.5,28.2c-0.5,0-1.1,0-1.6,0c-0.5,0-0.8-0.3-0.8-0.7c0-0.4,0.3-0.7,0.8-0.7c1,0,2.1,0,3.1,0
		c0.5,0,0.8,0.3,0.8,0.7c0,0.4-0.3,0.7-0.8,0.7C20.5,28.2,20,28.2,19.5,28.2z"/>
	<path id="XMLID_6_" d="M21.2,4.6c0.3,0,0.6,0,0.9,0c0.4,0,0.7,0.3,0.7,0.7c0,0.4-0.3,0.6-0.7,0.6c-0.6,0-1.3,0-1.9,0
		c-0.4,0-0.7-0.3-0.7-0.7c0-0.3,0.3-0.6,0.7-0.6C20.6,4.6,20.9,4.6,21.2,4.6z"/>
	<path id="XMLID_5_" d="M15.2,26.9c0.4,0,0.7,0.3,0.7,0.7c0,0.4-0.3,0.7-0.7,0.7c-0.4,0-0.7-0.3-0.7-0.7
		C14.5,27.1,14.8,26.8,15.2,26.9z"/>
	<path id="XMLID_4_" d="M25.2,5.2c0,0.4-0.3,0.7-0.7,0.7c-0.4,0-0.7-0.3-0.7-0.7c0-0.4,0.3-0.7,0.7-0.7C24.8,4.6,25.2,4.9,25.2,5.2z
		"/>
	<path id="XMLID_3_" d="M15.2,31c-0.4,0-0.7-0.3-0.7-0.7c0-0.4,0.3-0.6,0.7-0.6c0.4,0,0.7,0.3,0.7,0.6C15.9,30.7,15.6,31,15.2,31z"
		/>
	<path id="XMLID_2_" d="M15.2,33.8c-0.4,0-0.7-0.3-0.7-0.7c0-0.4,0.3-0.6,0.7-0.6c0.4,0,0.7,0.3,0.7,0.7
		C15.9,33.5,15.5,33.8,15.2,33.8z"/>
	<path id="XMLID_1_" d="M15.2,35.3c0.4,0,0.7,0.3,0.7,0.6c0,0.4-0.3,0.7-0.7,0.7c-0.4,0-0.7-0.3-0.7-0.7
		C14.5,35.6,14.8,35.3,15.2,35.3z"/>
</g>
<circle id="XMLID_11_" opacity="0.5" fill="#29A9E1" cx="13.6" cy="11.9" r="11"/>
</svg>
