<?xml version="1.0" encoding="utf-8"?>
<!-- Generator: Adobe Illustrator 19.0.0, SVG Export Plug-In . SVG Version: 6.00 Build 0)  -->
<svg version="1.0" id="Calque_1" xmlns="http://www.w3.org/2000/svg" xmlns:xlink="http://www.w3.org/1999/xlink" x="0px" y="0px"
	 viewBox="0 0 50 50" enable-background="new 0 0 50 50" xml:space="preserve">
<g>
	<path d="M18.9,46.9c-1.4,0-2.8,0-4.3,0c-0.1-0.2-0.3-0.4-0.3-0.6c-0.1-0.4-0.2-0.8-0.2-1.3c0-0.3-0.1-0.5-0.5-0.6
		c-0.4-0.1-0.8-0.3-1.2-0.5c-0.2-0.1-0.4,0-0.5,0c-0.4,0.3-0.8,0.6-1.2,0.9c-0.3,0.2-0.6,0.2-0.9-0.1c-0.8-0.9-1.7-1.7-2.5-2.5
		C7,41.9,7,41.6,7.3,41.3c0.3-0.4,0.6-0.8,0.9-1.2c0.1-0.1,0.1-0.3,0.1-0.4c-0.2-0.5-0.4-0.9-0.6-1.4C7.6,38.2,7.4,38,7.3,38
		c-0.5-0.1-1-0.2-1.5-0.2c-0.4,0-0.5-0.2-0.5-0.6c0-1.2,0-2.5,0-3.7c0-0.4,0.2-0.5,0.5-0.6c0.4-0.1,0.8-0.1,1.3-0.2
		c0.4,0,0.6-0.2,0.7-0.6c0.1-0.4,0.3-0.8,0.5-1.1c0-0.1,0-0.4,0-0.5c-0.3-0.4-0.6-0.8-0.9-1.2C7,29,7,28.7,7.3,28.4
		c0.9-0.9,1.8-1.8,2.6-2.6c0.2-0.2,0.5-0.3,0.8-0.1c0.2,0.1,0.3,0.3,0.5,0.4c0.3,0.2,0.7,0.5,1.1,0.8c0-0.3,0-0.5,0-0.6
		c0-5.8,0-11.6,0-17.4c0-1.3,0.5-1.8,1.8-1.8c0.7,0,1.4,0,2.1,0c0-0.7,0-1.4,0-2c-0.1-0.9,0.3-1.6,1.1-1.9c5.1,0,10.3,0,15.4,0
		c0.3,0.2,0.6,0.3,0.8,0.6c2.8,2.7,5.5,5.5,8.3,8.2c0.4,0.4,0.6,0.9,0.6,1.4c0,1.7,0,3.4,0,5.1c0,0.2,0,0.3,0,0.4
		c1.6,0.5,2.3,1.4,2.3,2.9c0,5.2,0,10.5,0,15.7c0,0.2-0.1,0.5-0.2,0.7c-0.7,1.2-1.4,2.4-2.1,3.6c-0.3,0.6-0.8,0.6-1.1,0
		c-0.6-0.9-1.1-1.9-1.6-2.8c-0.4-0.6-0.7-1.3-0.6-2c0,0,0-0.1,0-0.1c-0.2,0-0.4,0-0.6,0c0,0.7,0,1.4,0,2.1c0,1.3-0.5,1.8-1.8,1.8
		c-3.4,0-6.8,0-10.3,0c-0.2,0-0.3,0-0.6,0c0.2,0.3,0.3,0.5,0.5,0.6c0.2,0.3,0.2,0.5-0.1,0.8c-0.9,0.9-1.8,1.8-2.6,2.6
		c-0.3,0.3-0.5,0.3-0.8,0c-0.3-0.2-0.6-0.4-0.8-0.6c-0.4-0.4-0.8-0.4-1.4-0.2c-1.1,0.3-1.3,0.9-1.4,1.9C19.3,46.3,19,46.6,18.9,46.9
		z M39.2,29c-0.3,0-0.6,0.1-0.8,0.1c-1.6,0-3.2,0-4.8,0c-2.1,0-4.2,0-6.3,0c-0.3,0-0.6-0.1-0.6-0.5c0-0.3,0.2-0.5,0.6-0.5
		c0.1,0,0.2,0,0.3,0c3.6,0,7.2,0,10.8,0c0.3,0,0.5,0.1,0.8,0.1c0-1.1,0-2.3,0-3.5c-0.2,0-0.4,0.1-0.6,0.1c-3.7,0-7.5,0-11.2,0
		c-0.4,0-0.6-0.1-0.7-0.5c0-0.3,0.2-0.5,0.7-0.5c0.1,0,0.2,0,0.3,0c3.6,0,7.1,0,10.7,0c0.3,0,0.6,0.1,0.9,0.1c0-0.4,0-0.9,0-1.3
		c-0.3,0-0.5,0.1-0.8,0.1c-3.6,0-7.3,0-10.9,0c-0.1,0-0.3,0-0.3,0c-0.2-0.1-0.4-0.3-0.5-0.5c-0.1-0.3,0.1-0.5,0.4-0.5
		c0.1,0,0.3,0,0.4,0c3.6,0,7.3,0,10.9,0c0.3,0,0.5,0.1,0.8,0.1c0.1-1.5,0.9-2.4,2.3-2.8c0-1.9,0-3.7,0-5.6c-0.2,0-0.3,0-0.5,0
		c-2.3,0-4.7,0-7,0c-0.8,0-1.3-0.4-1.6-1.2c0-0.1,0-0.1-0.1-0.2c-1.7,0-3.3,0-4.9,0c-0.5,0-0.7-0.2-0.7-0.5c0-0.3,0.2-0.5,0.7-0.5
		c1.5,0,3,0,4.5,0c0.2,0,0.3,0,0.5,0c0-0.4,0-0.7,0-1.1c-0.2,0-0.3,0-0.5,0c-1.4,0-2.9,0-4.3,0c-0.2,0-0.4,0-0.5,0
		c-0.2-0.1-0.4-0.3-0.4-0.5c0-0.2,0.2-0.3,0.4-0.5c0.1-0.1,0.3,0,0.4,0c1.5,0,2.9,0,4.4,0c0.2,0,0.3,0,0.5,0c0-1.6,0-3.1,0-4.6
		c-0.2,0-0.3,0-0.5,0c-4.6,0-9.2,0-13.8,0c-0.7,0-0.8,0.1-0.8,0.8c0,6.1,0,12.2,0,18.3c0,0.2,0,0.3,0,0.5c0.5,0,0.9,0,1.3,0
		c0.4,0,0.6,0.2,0.7,0.6c0,0.4,0.1,0.7,0.2,1.1c0,0.5,0.2,0.8,0.7,0.9c0.3,0.1,0.6,0.3,1,0.4c0.1,0,0.4,0,0.5,0
		c0.4-0.3,0.8-0.6,1.2-0.9c0.3-0.2,0.6-0.2,0.8,0.1c0.9,0.9,1.7,1.7,2.6,2.6c0.3,0.3,0.3,0.6,0.1,0.9c-0.3,0.3-0.5,0.7-0.7,1
		c-0.3,0.3-0.3,0.6-0.1,0.9c0.3,0.4,0.3,1.1,0.7,1.4c0.4,0.3,1,0.2,1.5,0.3c0.6,0.1,0.7,0.2,0.7,0.8c0,0.7,0,1.4,0,2.1
		c3.6,0,7.2,0,10.8,0c0-1.6,0-3.1,0-4.6c-0.3,0-0.6,0.1-0.9,0.1c-3.6,0-7.2,0-10.8,0c-0.6,0-0.9-0.2-0.9-0.5c0-0.3,0.3-0.5,0.8-0.5
		c3.5,0,7.1,0,10.6,0c0.4,0,0.7,0,1.1,0.1C39.2,29.8,39.2,29.4,39.2,29z M15.3,24.8c-0.1,0.5-0.2,1.1-0.2,1.6c0,0.4-0.2,0.5-0.6,0.7
		c-0.7,0.2-1.3,0.5-1.9,0.8C12.2,28,12,28,11.7,27.8c-0.4-0.3-0.9-0.6-1.2-0.9C9.7,27.6,9,28.3,8.3,29c0.3,0.4,0.6,0.8,0.9,1.3
		c0.2,0.3,0.2,0.5,0.1,0.8c-0.3,0.7-0.6,1.4-0.8,2c-0.1,0.3-0.3,0.4-0.6,0.5c-0.5,0.1-1.1,0.2-1.7,0.3c0,1,0,2,0,3
		C6.8,36.9,7.3,37,7.9,37c0.3,0,0.5,0.2,0.6,0.5c0.2,0.7,0.5,1.3,0.8,2c0.2,0.3,0.1,0.6-0.1,0.9c-0.3,0.4-0.6,0.9-0.9,1.2
		c0.7,0.7,1.4,1.4,2.1,2.1c0.4-0.3,0.8-0.6,1.3-0.9c0.3-0.2,0.5-0.2,0.8-0.1c0.6,0.3,1.3,0.6,2,0.8c0.3,0.1,0.5,0.3,0.5,0.6
		c0.1,0.5,0.2,1.1,0.3,1.6c1,0,2,0,3,0c0.1-0.5,0.2-1,0.2-1.6c0-0.4,0.2-0.6,0.6-0.7c0.6-0.2,1.3-0.5,1.8-0.8c0.4-0.2,0.7-0.2,1,0.1
		c0.4,0.3,0.8,0.6,1.2,0.9c0.7-0.7,1.4-1.4,2.1-2.1c-0.3-0.4-0.6-0.9-1-1.3c-0.2-0.3-0.2-0.5-0.1-0.8c0.3-0.7,0.6-1.3,0.8-2
		c0.1-0.3,0.3-0.5,0.6-0.5c0.5-0.1,1.1-0.2,1.6-0.2c0-1,0-2,0-3c-0.6-0.1-1.1-0.2-1.6-0.2c-0.4,0-0.5-0.2-0.6-0.6
		c-0.2-0.6-0.5-1.3-0.8-1.9c-0.2-0.3-0.2-0.6,0.1-0.9c0.3-0.4,0.6-0.9,0.9-1.2c-0.7-0.7-1.4-1.4-2.1-2.1c-0.4,0.3-0.8,0.6-1.2,0.9
		C21.6,28,21.3,28,21,27.8c-0.6-0.3-1.2-0.6-1.9-0.8c-0.4-0.1-0.6-0.3-0.6-0.7c-0.1-0.5-0.2-1-0.2-1.6
		C17.2,24.8,16.3,24.8,15.3,24.8z M16.3,23.7c0-5.2,0-10.4,0-15.6c-0.7,0-1.4,0-2.1,0c-0.8,0-0.8,0.1-0.8,0.8c0,5.6,0,11.2,0,16.9
		c0,0.2,0,0.3,0,0.5c0.7-0.1,0.7-0.1,0.8-0.7c0.1-0.4,0.1-0.8,0.2-1.2c0.1-0.5,0.2-0.6,0.8-0.6C15.5,23.7,15.8,23.7,16.3,23.7z
		 M25.3,39.7c0.2,0,0.4,0,0.6,0c3.4,0,6.9,0,10.3,0c1.4,0,1.3,0,1.3-1.3c0-0.5,0-1.1,0-1.6c-3.1,0-6.1,0-9.1,0
		c-0.1,0.8-0.1,0.9-0.9,1c-0.4,0.1-0.8,0.1-1.2,0.2c-0.1,0-0.3,0.1-0.3,0.2C25.7,38.7,25.6,39.2,25.3,39.7z M40.7,12.3
		c0,0-0.1,0.1-0.1,0.1c-2.4-2.5-4.8-4.9-7.2-7.4c0,0.2,0,0.3,0,0.5c0,2.1,0,4.1,0,6.2c0,0.6,0.1,0.7,0.7,0.7c2.1,0,4.2,0,6.3,0
		C40.5,12.3,40.6,12.3,40.7,12.3z M41.5,37.2c0-4.7,0-9.3,0-14c-0.4,0-0.8,0-1.2,0c0,4.7,0,9.3,0,14C40.7,37.2,41,37.2,41.5,37.2z
		 M42.5,37.2c0.4,0,0.8,0,1.2,0c0-4.7,0-9.3,0-14c-0.4,0-0.8,0-1.2,0C42.5,27.9,42.5,32.5,42.5,37.2z M43.7,22.1
		c0.2-0.8-0.1-1.5-0.7-2c-0.6-0.4-1.4-0.4-2,0c-0.6,0.4-0.9,1.2-0.7,1.9C41.4,22.1,42.5,22.1,43.7,22.1z M40.6,38.3
		c0.5,0.8,0.9,1.6,1.4,2.4c0.5-0.8,0.9-1.6,1.4-2.4C42.4,38.3,41.6,38.3,40.6,38.3z"/>
	<path id="XMLID_7_" d="M32.9,15.2c1.9,0,3.8,0,5.6,0c0.2,0,0.5,0.1,0.6,0.3c0.2,0.3,0,0.6-0.4,0.7c-0.1,0-0.3,0-0.4,0
		c-3.6,0-7.2,0-10.8,0c-0.1,0-0.2,0-0.3,0c-0.4,0-0.6-0.2-0.6-0.5c0-0.3,0.3-0.5,0.6-0.5C29.1,15.2,31,15.2,32.9,15.2z"/>
	<path id="XMLID_6_" d="M32.9,18.3c-1.8,0-3.7,0-5.5,0c-0.1,0-0.3,0-0.3,0c-0.2-0.1-0.4-0.3-0.4-0.5c0-0.2,0.2-0.4,0.4-0.5
		c0.1-0.1,0.2,0,0.4,0c3.7,0,7.3,0,11,0c0.1,0,0.3,0,0.4,0c0.2,0.1,0.4,0.3,0.4,0.5c0,0.2-0.2,0.3-0.4,0.5c-0.1,0.1-0.2,0-0.3,0
		C36.6,18.3,34.8,18.3,32.9,18.3z"/>
	<path id="XMLID_5_" d="M21.9,17.6c0.9-0.9,1.8-1.8,2.7-2.7c0.2-0.1,0.4-0.3,0.6-0.3c0.4,0.1,0.5,0.6,0.2,0.9c-0.5,0.5-1,1-1.6,1.6
		c-0.5,0.5-0.9,0.9-1.4,1.4c-0.4,0.3-0.6,0.3-0.9,0c-0.6-0.5-1.1-1.1-1.7-1.7c-0.3-0.3-0.4-0.5-0.1-0.8c0.2-0.2,0.5-0.2,0.8,0.1
		C21,16.6,21.4,17.1,21.9,17.6z"/>
	<path id="XMLID_4_" d="M21.9,24c0.8-0.8,1.6-1.6,2.4-2.4c0.1-0.1,0.2-0.2,0.3-0.3c0.2-0.2,0.5-0.3,0.8,0c0.2,0.2,0.2,0.5-0.1,0.8
		c-0.3,0.3-0.6,0.6-0.8,0.8c-0.7,0.7-1.4,1.4-2.1,2.1c-0.4,0.4-0.6,0.4-1,0c-0.5-0.5-1.1-1.1-1.6-1.6c-0.3-0.3-0.4-0.6-0.1-0.8
		c0.2-0.2,0.5-0.2,0.8,0.1C21,23.1,21.4,23.5,21.9,24z"/>
	<path id="XMLID_3_" d="M21.9,11.2c0.9-0.9,1.7-1.7,2.6-2.5c0.1-0.1,0.2-0.3,0.3-0.3c0.2,0,0.5-0.1,0.6,0.1c0.1,0.1,0.1,0.4,0.1,0.6
		c0,0.1-0.1,0.1-0.2,0.2c-0.9,0.9-1.9,1.9-2.8,2.8c-0.4,0.4-0.6,0.4-1,0c-0.5-0.5-1.1-1.1-1.6-1.6c-0.2-0.2-0.4-0.5-0.1-0.8
		c0.2-0.3,0.5-0.2,0.8,0.1C21,10.2,21.4,10.7,21.9,11.2z"/>
	<path d="M22.6,35.3c-0.1,3.3-2.7,5.8-5.9,5.8c-3.3-0.1-5.8-2.7-5.7-6c0.1-3.2,2.7-5.7,6-5.6C20.1,29.6,22.6,32.3,22.6,35.3z
		 M16.8,40.1c2.7,0,4.8-2.1,4.8-4.8c0-2.6-2.1-4.8-4.8-4.8c-2.6,0-4.7,2.1-4.7,4.8C12,37.9,14.1,40.1,16.8,40.1z"/>
</g>
<circle id="XMLID_11_" opacity="0.5" fill="#29A9E1" cx="12.3" cy="13.3" r="11.3"/>
</svg>
