<?xml version="1.0" encoding="utf-8"?>
<!-- Generator: Adobe Illustrator 19.0.0, SVG Export Plug-In . SVG Version: 6.00 Build 0)  -->
<svg version="1.0" id="Calque_1" xmlns="http://www.w3.org/2000/svg" xmlns:xlink="http://www.w3.org/1999/xlink" x="0px" y="0px"
	 viewBox="0 0 50 50" enable-background="new 0 0 50 50" xml:space="preserve">
<g id="XMLID_31_">
	<g id="XMLID_1_">
		<path d="M48.9,25.3c-0.1,0.1-0.1,0.3-0.2,0.4c-0.4,0.9-1.1,1.5-2.1,1.5c-1,0.1-1.7-0.4-2.2-1.2c-0.1-0.2-0.3-0.4-0.6-0.4
			c-5.9,0-11.9,0-17.8,0c-0.1,0-0.2,0-0.4,0c0,0.8,0,1.5,0,2.4c0.2,0,0.4,0,0.5,0c4,0,8,0,12,0c1.8,0,2.7,1,2.7,2.7
			c0,1.2,0,2.3,0,3.5c0,0.2,0.1,0.4,0.3,0.5c1,0.6,1.5,1.6,1.2,2.7c-0.3,1-1.3,1.8-2.4,1.8c-1.1,0-2-0.8-2.3-1.8
			c-0.3-1.1,0.2-2.2,1.2-2.8c0.1-0.1,0.3-0.3,0.3-0.4c0-1.2,0-2.5,0-3.7c0-0.7-0.3-1-1-1c-4.1,0-8.2,0-12.3,0c-0.1,0-0.2,0-0.3,0
			c0,0.8,0,1.6,0,2.4c0.2,0,0.4,0,0.5,0c2.6,0,5.2,0,7.9,0c0.2,0,0.3,0,0.5,0c0.4,0,0.7,0.4,0.7,0.8c0,0.4-0.3,0.7-0.7,0.8
			c-0.2,0-0.3,0-0.5,0c-2.7,0-5.3,0-8,0c-0.2,0-0.3,0-0.5,0c0,0.6,0,1,0,1.6c0.2,0,0.3,0,0.5,0c1.4,0,2.8,0,4.2,0
			c1.5,0,2.5,1,2.5,2.5c0,1.5,0,3,0,4.5c0,0.3,0.1,0.4,0.3,0.6c1,0.5,1.5,1.6,1.2,2.7c-0.3,1.1-1.2,1.8-2.4,1.8
			c-1.1,0-2-0.7-2.3-1.8c-0.3-1.1,0.2-2.2,1.2-2.8c0.3-0.1,0.3-0.3,0.3-0.6c0-1.4,0-2.9,0-4.3c0-0.8-0.3-1-1-1c-1.5,0-3,0-4.5,0
			c-0.2,0-0.4,0.1-0.5,0.2c-0.4,0.4-0.8,0.6-1.4,0.6c-2.9-0.2-5.5-1.2-7.6-3.2c-3.8-3.5-5.2-7.9-3.9-12.9c1.3-5,4.7-8.1,9.8-9.3
			c0.6-0.1,1.2-0.2,1.8-0.2c0.5,0,0.9,0.2,1.3,0.5c0.1,0.1,0.3,0.2,0.5,0.2c1.5,0,3,0,4.5,0c0.7,0,1-0.3,1-0.9c0-1.5,0-3,0-4.5
			c0-0.2-0.1-0.4-0.3-0.5c-1-0.6-1.5-1.6-1.2-2.7c0.3-1,1.2-1.8,2.3-1.8c1.1,0,2.1,0.7,2.4,1.8c0.3,1.1-0.2,2.2-1.2,2.8
			c-0.1,0.1-0.3,0.3-0.3,0.5c0,1.5,0,3,0,4.4c0,1.6-1,2.6-2.6,2.6c-1.5,0-3,0-4.6,0c0,0.5,0,1,0,1.6c0.2,0,0.4,0,0.5,0
			c2.7,0,5.3,0,8,0c0.2,0,0.4,0,0.6,0.1c0.4,0.1,0.6,0.4,0.5,0.8c0,0.4-0.3,0.7-0.7,0.7c-0.2,0-0.3,0-0.5,0c-2.6,0-5.2,0-7.9,0
			c-0.2,0-0.3,0-0.6,0c0,0.8,0,1.6,0,2.4c0.2,0,0.3,0,0.5,0c4,0,8,0,12,0c0.9,0,1.1-0.3,1.1-1.1c0-1.2,0-2.3,0-3.5
			c0-0.3-0.1-0.4-0.3-0.5c-1.1-0.6-1.5-1.7-1.2-2.8c0.3-1.1,1.4-1.8,2.5-1.7c1.2,0.1,2.1,1,2.2,2.2c0.1,0.9-0.4,1.9-1.3,2.3
			c-0.3,0.1-0.3,0.3-0.3,0.6c0,1.2,0,2.4,0,3.5c0,1.6-1,2.6-2.7,2.6c-4,0-8,0-12,0c-0.2,0-0.4,0-0.6,0c0,0.8,0,1.6,0,2.4
			c0.2,0,0.3,0,0.5,0c5.9,0,11.8,0,17.6,0c0.2,0,0.5,0,0.6-0.3c0.5-0.9,1.3-1.4,2.3-1.3c1.1,0.1,1.8,0.7,2.1,1.7
			c0,0.1,0.1,0.1,0.1,0.2C48.9,24.7,48.9,25,48.9,25.3z M23.9,13.7c-3.6,0.2-7.5,2.3-9.3,6.4c-1.9,4.2-1.5,8.2,1.3,11.8
			c2,2.6,4.7,4,8,4.3C23.9,28.6,23.9,21.1,23.9,13.7z M32,5.6c0.5,0,0.8-0.3,0.8-0.8C32.8,4.3,32.4,4,32,4c-0.4,0-0.8,0.4-0.8,0.8
			C31.2,5.2,31.5,5.6,32,5.6z M32,44.2c-0.4,0-0.8,0.4-0.8,0.8c0,0.4,0.4,0.8,0.8,0.8c0.4,0,0.8-0.3,0.8-0.8
			C32.8,44.5,32.4,44.2,32,44.2z M47.3,24.9c0-0.4-0.3-0.8-0.8-0.8c-0.4,0-0.8,0.3-0.8,0.7c0,0.5,0.3,0.8,0.7,0.9
			C46.9,25.7,47.2,25.3,47.3,24.9z M40.8,12.8c0-0.4-0.4-0.8-0.8-0.8c-0.4,0-0.8,0.3-0.8,0.8c0,0.5,0.3,0.8,0.8,0.8
			C40.5,13.6,40.8,13.3,40.8,12.8z M39.2,36.9c0,0.5,0.3,0.8,0.8,0.8c0.4,0,0.8-0.3,0.8-0.8c0-0.4-0.3-0.8-0.8-0.8
			C39.6,36.1,39.3,36.4,39.2,36.9z"/>
		<path d="M24.4,0.7c0.9,0.4,1.2,1.2,1.2,2.2c0,1.9,0,3.7,0,5.6c0,1.3-0.5,1.9-1.8,2C17.1,11,11.9,15.6,10.6,22
			C9,29.6,14,37.4,21.6,39c0.8,0.2,1.6,0.2,2.4,0.3c1,0.1,1.5,0.7,1.6,1.7c0,2.1,0,4.2,0,6.3c0,0.9-0.5,1.4-1.3,1.7
			c-0.4,0-0.8,0-1.1,0c-0.1,0-0.2-0.1-0.4-0.1c-1.4-0.1-2.1-0.8-2.3-2.1c-0.1-0.7-0.2-1.3-0.3-2c0-0.3-0.1-0.4-0.4-0.4
			c-1.9-0.5-3.6-1.2-5.3-2.2c-0.2-0.1-0.4-0.1-0.6,0c-0.6,0.5-1.2,0.9-1.9,1.3c-0.9,0.6-2,0.6-2.7-0.1c-1-1-2.1-2-3-3
			c-0.8-0.9-0.8-1.9-0.1-2.9c0.4-0.6,0.9-1.2,1.2-1.8c0.1-0.1,0.1-0.4,0-0.5c-1-1.7-1.7-3.5-2.2-5.4c0-0.1-0.2-0.3-0.4-0.3
			c-0.7-0.1-1.4-0.3-2.1-0.4c-1.2-0.2-1.9-1-2-2.2c0-0.2-0.1-0.4-0.1-0.6c0-0.9,0-1.9,0-2.8c0-0.2,0.1-0.4,0.1-0.5
			c0.1-1.3,0.8-2.1,2.1-2.3c0.7-0.1,1.3-0.2,1.9-0.3c0.3,0,0.4-0.2,0.5-0.4c0.5-1.9,1.2-3.6,2.2-5.2c0.2-0.3,0.1-0.4,0-0.6
			c-0.4-0.6-0.8-1.2-1.3-1.8c-0.7-0.9-0.7-2,0.1-2.9c1-1,2-2.1,3-3c0.8-0.8,1.9-0.8,2.8-0.1c0.6,0.4,1.2,0.9,1.8,1.3
			c0.1,0.1,0.4,0.1,0.5,0c1.7-1,3.4-1.7,5.3-2.2c0.1,0,0.3-0.2,0.4-0.4c0.1-0.7,0.3-1.5,0.4-2.2c0.2-1.1,1-1.9,2.1-2
			c0.1,0,0.3-0.1,0.4-0.1C23.5,0.7,23.9,0.7,24.4,0.7z M23.9,2.3c-0.4,0-0.7,0.1-1.1,0.1c-0.4,0-0.7,0.2-0.7,0.7
			C22,4,21.8,4.9,21.7,5.9c-0.1,0.5-0.3,0.8-0.8,0.9c-2.2,0.5-4.2,1.3-6,2.5c-0.4,0.3-0.8,0.3-1.2,0c-0.8-0.6-1.5-1.1-2.3-1.7
			c-0.4-0.3-0.7-0.3-1,0c-0.9,0.9-1.8,1.7-2.6,2.6c-0.4,0.5-0.4,0.7-0.1,1.2c0.5,0.7,1.1,1.5,1.6,2.2c0.3,0.4,0.3,0.8,0.1,1.2
			C8,16.7,7.1,18.8,6.7,21c-0.1,0.5-0.4,0.7-0.8,0.8c-0.9,0.1-1.9,0.3-2.8,0.5c-0.4,0.1-0.7,0.3-0.7,0.7c0,1.3,0,2.6,0,3.9
			c0,0.4,0.3,0.7,0.7,0.7C4,27.7,4.9,27.8,5.8,28c0.5,0.1,0.7,0.3,0.9,0.8C7.1,31,8,33,9.2,34.9c0.3,0.4,0.3,0.8,0,1.2
			c-0.6,0.7-1.1,1.5-1.6,2.3c-0.3,0.4-0.3,0.7,0,1.1c0.9,0.9,1.8,1.7,2.6,2.6c0.4,0.4,0.7,0.3,1.1,0c0.7-0.5,1.5-1.1,2.3-1.6
			c0.4-0.3,0.8-0.3,1.2,0c1.9,1.2,3.9,2.1,6.1,2.5c0.5,0.1,0.7,0.4,0.8,0.9c0.1,0.9,0.3,1.9,0.5,2.8c0,0.2,0.3,0.5,0.5,0.6
			c0.4,0.1,0.9,0.1,1.3,0.1c0-0.1,0-0.2,0-0.2c0-1.9,0-3.9,0-5.8c0-0.3-0.2-0.4-0.4-0.4c-0.9-0.1-1.9-0.2-2.8-0.5
			C12.3,38.2,7.1,29.9,9,21.5c1.5-6.5,5.6-10.6,12.1-12.3C22,9,22.9,8.9,23.9,8.7C23.9,6.6,23.9,4.5,23.9,2.3z"/>
	</g>
	<circle id="XMLID_11_" opacity="0.5" fill="#29A9E1" cx="13.6" cy="11.9" r="11"/>
</g>
</svg>
