<?xml version="1.0" encoding="utf-8"?>
<!-- Generator: Adobe Illustrator 19.0.0, SVG Export Plug-In . SVG Version: 6.00 Build 0)  -->
<svg version="1.0" id="Calque_1" xmlns="http://www.w3.org/2000/svg" xmlns:xlink="http://www.w3.org/1999/xlink" x="0px" y="0px"
	 viewBox="0 0 151 102" enable-background="new 0 0 151 102" xml:space="preserve">
<g id="XMLID_1_" opacity="0.6">
	<g>
		<g id="XMLID_291_">
			<g id="XMLID_320_">
				<circle id="XMLID_326_" fill="#00AEEF" cx="8.7" cy="96.1" r="2.1"/>
				<circle id="XMLID_325_" fill="#00AEEF" cx="35.4" cy="96.1" r="2.1"/>
				<circle id="XMLID_324_" fill="#00AEEF" cx="62.1" cy="96.1" r="2.1"/>
				<circle id="XMLID_323_" fill="#00AEEF" cx="88.9" cy="96.1" r="2.1"/>
				<circle id="XMLID_322_" fill="#00AEEF" cx="115.6" cy="96.1" r="2.1"/>
				<circle id="XMLID_321_" fill="#00AEEF" cx="142.3" cy="96.1" r="2.1"/>
			</g>
			<g id="XMLID_313_">
				<circle id="XMLID_319_" fill="#00AEEF" cx="8.7" cy="73.5" r="2.1"/>
				<circle id="XMLID_318_" fill="#00AEEF" cx="35.4" cy="73.5" r="2.1"/>
				<circle id="XMLID_317_" fill="#00AEEF" cx="62.1" cy="73.5" r="2.1"/>
				<circle id="XMLID_316_" fill="#00AEEF" cx="88.9" cy="73.5" r="2.1"/>
				<circle id="XMLID_315_" fill="#00AEEF" cx="115.6" cy="73.5" r="2.1"/>
				<circle id="XMLID_314_" fill="#00AEEF" cx="142.3" cy="73.5" r="2.1"/>
			</g>
			<g id="XMLID_306_">
				<circle id="XMLID_312_" fill="#00AEEF" cx="8.7" cy="51" r="2.1"/>
				<circle id="XMLID_311_" fill="#00AEEF" cx="35.4" cy="51" r="2.1"/>
				<circle id="XMLID_310_" fill="#00AEEF" cx="62.1" cy="51" r="2.1"/>
				<circle id="XMLID_309_" fill="#00AEEF" cx="88.9" cy="51" r="2.1"/>
				<circle id="XMLID_308_" fill="#00AEEF" cx="115.6" cy="51" r="2.1"/>
				<circle id="XMLID_307_" fill="#00AEEF" cx="142.3" cy="51" r="2.1"/>
			</g>
			<g id="XMLID_299_">
				<circle id="XMLID_305_" fill="#00AEEF" cx="8.7" cy="28.5" r="2.1"/>
				<circle id="XMLID_304_" fill="#00AEEF" cx="35.4" cy="28.5" r="2.1"/>
				<circle id="XMLID_303_" fill="#00AEEF" cx="62.1" cy="28.5" r="2.1"/>
				<circle id="XMLID_302_" fill="#00AEEF" cx="88.9" cy="28.5" r="2.1"/>
				<circle id="XMLID_301_" fill="#00AEEF" cx="115.6" cy="28.5" r="2.1"/>
				<circle id="XMLID_300_" fill="#00AEEF" cx="142.3" cy="28.5" r="2.1"/>
			</g>
			<g id="XMLID_292_">
				<circle id="XMLID_298_" fill="#00AEEF" cx="8.7" cy="5.9" r="2.1"/>
				<circle id="XMLID_297_" fill="#00AEEF" cx="35.4" cy="5.9" r="2.1"/>
				<circle id="XMLID_296_" fill="#00AEEF" cx="62.1" cy="5.9" r="2.1"/>
				<circle id="XMLID_295_" fill="#00AEEF" cx="88.9" cy="5.9" r="2.1"/>
				<circle id="XMLID_294_" fill="#00AEEF" cx="115.6" cy="5.9" r="2.1"/>
				<circle id="XMLID_293_" fill="#00AEEF" cx="142.3" cy="5.9" r="2.1"/>
			</g>
		</g>
	</g>
</g>
</svg>
