<?xml version="1.0" encoding="utf-8"?>
<!-- Generator: Adobe Illustrator 19.0.0, SVG Export Plug-In . SVG Version: 6.00 Build 0)  -->
<svg version="1.0" id="Calque_1" xmlns="http://www.w3.org/2000/svg" xmlns:xlink="http://www.w3.org/1999/xlink" x="0px" y="0px"
	 viewBox="0 0 50 50" enable-background="new 0 0 50 50" xml:space="preserve">
<g>
	<path d="M22.2,3c0.8,0.1,1.7,0.2,2.5,0.4c7.6,1.4,13.6,7.7,14.7,15.3c0.7,5-0.5,9.6-3.5,13.7c-0.1,0.1-0.1,0.1-0.2,0.3
		c0.7,0.7,1.4,1.4,2.1,2.1c0.3,0.4,0.7,0.6,1.2,0.7c0.5,0.1,0.9,0.4,1.3,0.8c1.9,1.9,3.9,3.8,5.8,5.8c1.2,1.2,1.2,3.1,0,4.2
		c-1.2,1.2-3,1.1-4.2-0.1c-1.9-1.9-3.8-3.8-5.7-5.7c-0.5-0.5-0.8-1.1-0.9-1.7c0-0.1-0.1-0.3-0.2-0.3c-0.8-0.8-1.7-1.7-2.4-2.5
		c-1.1,0.7-2.1,1.4-3.2,1.9c-10.6,5.4-23.6-0.9-26-12.5c-0.2-0.9-0.3-1.8-0.4-2.7c0-0.8,0-1.7,0-2.5c0-0.1,0.1-0.2,0.1-0.3
		c0.2-1,0.3-2,0.5-3C5.8,9.4,10.6,4.9,18,3.3c0.8-0.2,1.6-0.2,2.5-0.3C21,3,21.6,3,22.2,3z M4.5,21.3c0,9.3,7.5,16.8,16.8,16.9
		c9.3,0,16.9-7.5,16.9-16.8c0-9.3-7.6-16.9-16.9-16.9C12,4.5,4.5,12,4.5,21.3z M36.7,38.4c0.1,0.2,0.2,0.6,0.4,0.8
		c1.9,2,3.9,3.9,5.9,5.9c0.3,0.3,0.7,0.5,1.2,0.4c0.6-0.1,1-0.4,1.2-0.9c0.2-0.6,0.1-1.1-0.4-1.6c-1-1.1-2.1-2.1-3.1-3.1
		c-0.9-0.9-1.8-1.8-2.7-2.7c-0.5-0.5-1-0.6-1.6-0.3C37,37.1,36.7,37.5,36.7,38.4z M33.8,34.7c0.6,0.6,1.2,1.2,1.8,1.8
		c0.3-0.3,0.6-0.6,0.9-0.8c-0.6-0.6-1.2-1.2-1.8-1.8C34.4,34.1,34.1,34.5,33.8,34.7z"/>
	<path d="M21.3,5.9c8.5,0,15.4,6.9,15.4,15.4c0,8.5-6.9,15.4-15.4,15.3c-8.5,0-15.4-6.9-15.4-15.4C6,12.8,12.8,5.9,21.3,5.9z
		 M21.3,7.4c-7.7,0-13.9,6.2-13.9,13.9c0,7.7,6.2,13.9,13.9,13.9c7.7,0,13.9-6.2,13.9-13.9C35.2,13.6,29,7.4,21.3,7.4z"/>
	<path id="XMLID_7_" d="M14,27.2c0.2,0,0.4,0,0.6,0c4.8,0,9.6,0,14.4,0c0.1,0,0.3,0,0.4,0c0.4,0,0.7,0.3,0.7,0.7
		c0,0.4-0.2,0.7-0.6,0.7c-0.1,0-0.3,0-0.4,0c-4.9,0-9.9,0-14.8,0c-1.2,0-1.7-0.6-1.7-1.7c0-4,0-7.9,0-11.9c0-0.1,0-0.3,0-0.4
		c0.1-0.4,0.4-0.7,0.7-0.7c0.4,0,0.7,0.3,0.7,0.6c0,0.1,0,0.3,0,0.4c0,3.8,0,7.7,0,11.5C14,26.8,14,26.9,14,27.2z"/>
	<path id="XMLID_6_" d="M19.1,17.8c-0.8,0.6-1.6,1.2-2.4,1.8c-0.5,0.3-0.9,0.3-1.2,0c-0.3-0.4-0.2-0.8,0.3-1.1
		c0.8-0.6,1.5-1.1,2.3-1.7c0.7-0.5,1.3-0.5,2,0c0.6,0.4,1.2,0.8,1.7,1.3c0.2,0.2,0.4,0.2,0.7,0.1c0.6-0.3,1.2-0.6,1.7-0.9
		c0.5-0.2,1-0.2,1.5,0c0.6,0.3,1.2,0.6,1.7,0.9c0.3,0.1,0.4,0.1,0.6-0.1c0.2-0.3,0.5-0.5,0.8-0.8c0.3-0.3,0.8-0.3,1.1,0
		c0.3,0.3,0.3,0.7,0,1.1c-0.3,0.4-0.7,0.7-1,1c-0.5,0.5-1.1,0.6-1.7,0.3c-0.6-0.3-1.1-0.5-1.7-0.8c-0.3-0.2-0.6-0.2-0.9,0
		c-0.5,0.3-1.1,0.5-1.6,0.8c-0.6,0.3-1.2,0.3-1.8-0.2C20.5,18.8,19.8,18.3,19.1,17.8z"/>
	<path id="XMLID_5_" d="M27.2,23.5c0-0.5,0-0.9,0-1.4c0-0.5,0.3-0.8,0.7-0.8c0.4,0,0.7,0.3,0.7,0.8c0,0.9,0,1.9,0,2.8
		c0,0.5-0.3,0.8-0.7,0.8c-0.4,0-0.7-0.3-0.7-0.8C27.2,24.4,27.2,24,27.2,23.5z"/>
	<path id="XMLID_4_" d="M25.7,22.1c0,0.5,0,0.9,0,1.4c0,0.5-0.3,0.8-0.7,0.8c-0.4,0-0.7-0.3-0.7-0.7c0-1,0-2,0-3
		c0-0.4,0.3-0.7,0.7-0.7c0.4,0,0.7,0.3,0.7,0.8C25.7,21.1,25.7,21.6,25.7,22.1z"/>
	<path id="XMLID_3_" d="M21.3,23.5c0-0.5,0-0.9,0-1.4c0-0.5,0.3-0.8,0.7-0.8c0.4,0,0.7,0.3,0.7,0.7c0,1,0,1.9,0,2.9
		c0,0.5-0.3,0.8-0.7,0.8c-0.4,0-0.7-0.3-0.7-0.8c0,0,0,0,0,0C21.3,24.4,21.3,24,21.3,23.5z"/>
	<path id="XMLID_2_" d="M19.8,22.1c0,0.5,0,0.9,0,1.4c0,0.5-0.3,0.8-0.7,0.8c-0.4,0-0.7-0.3-0.7-0.7c0-1,0-2,0-3
		c0-0.4,0.4-0.7,0.8-0.7c0.4,0,0.7,0.3,0.7,0.8C19.9,21.1,19.8,21.6,19.8,22.1z"/>
	<path id="XMLID_1_" d="M16.9,23.5c0,0.5,0,0.9,0,1.4c0,0.5-0.3,0.8-0.7,0.8c-0.4,0-0.7-0.3-0.7-0.8c0-0.9,0-1.8,0-2.7
		c0-0.5,0.3-0.8,0.7-0.8c0.5,0,0.7,0.3,0.7,0.8C16.9,22.6,16.9,23.1,16.9,23.5z"/>
</g>
<circle id="XMLID_11_" opacity="0.5" fill="#29A9E1" cx="12.3" cy="13.3" r="11.3"/>
</svg>
