<?xml version="1.0" encoding="utf-8"?>
<!-- Generator: Adobe Illustrator 19.0.0, SVG Export Plug-In . SVG Version: 6.00 Build 0)  -->
<svg version="1.0" id="Calque_1" xmlns="http://www.w3.org/2000/svg" xmlns:xlink="http://www.w3.org/1999/xlink" x="0px" y="0px"
	 viewBox="0 0 50 50" enable-background="new 0 0 50 50" xml:space="preserve">
<g>
	<path d="M17.1,30.2c0,0.7,0,1.4,0,2.1c0,0.7-0.2,0.9-0.9,0.9c-0.7,0-1.3,0-2.1,0c0,0.2,0,0.4,0,0.5c0,2.2,0,4.4,0,6.6
		c0,0.7-0.2,0.9-0.9,0.9c-2,0-3.9,0-5.9,0c-0.7,0-0.9-0.2-0.9-0.9c0-2.2,0-4.4,0-6.6c0-0.2,0-0.3,0-0.5c-0.7,0-1.4,0-2,0
		c-0.7,0-0.9-0.2-0.9-0.9c0-3.6,0-7.2,0-10.8c0-1.7,1.1-2.8,2.9-2.8c2.6,0,5.2,0,7.7,0c1.9,0,2.9,1.1,2.9,2.9c0,2.2,0,4.5,0,6.7
		c0,0.2,0,0.3,0,0.5c9.3,0,18.7,0,28,0c0-7.9,0-15.7,0-23.6c-11.4,0-22.9,0-34.4,0c0,0.6,0,1.2,0,1.8c0,0.2-0.1,0.5-0.3,0.6
		c-0.4,0.3-1,0.1-1.1-0.5c0-0.9,0-1.9,0-2.8C9.4,4,9.7,3.8,10,3.8c0.1,0,0.2,0,0.3,0c11.7,0,23.4,0,35,0c0.9,0,1,0.2,1,1
		c0,8.1,0,16.2,0,24.4c0,0.9-0.1,1-1,1c-9.2,0-18.5,0-27.7,0C17.5,30.2,17.4,30.2,17.1,30.2z M6.5,31.7c0-0.2,0-0.4,0-0.5
		c0-1.8,0-3.5,0-5.3c0-0.1,0-0.3,0-0.4C6.6,25.2,6.8,25,7.2,25c0.4,0,0.6,0.2,0.7,0.6c0,0.2,0,0.3,0,0.5c0,4.4,0,8.8,0,13.1
		c0,0.2,0,0.3,0,0.5c0.6,0,1.2,0,1.8,0c0-0.6,0-1.2,0-1.7c0-1.2,0-2.4,0-3.7c0-0.6,0.3-0.8,0.8-0.8c0.4,0.1,0.6,0.3,0.6,0.8
		c0,1.6,0,3.3,0,4.9c0,0.2,0,0.3,0,0.5c0.6,0,1.2,0,1.8,0c0-0.2,0-0.4,0-0.6c0-4.4,0-8.8,0-13.2c0-0.2,0-0.3,0-0.5
		c0.1-0.3,0.3-0.5,0.6-0.5c0.3,0,0.6,0.2,0.6,0.5c0,0.2,0,0.3,0,0.5c0,1.8,0,3.5,0,5.3c0,0.2,0,0.3,0,0.5c0.6,0,1.1,0,1.6,0
		c0-0.1,0-0.1,0-0.2c0-3.4,0.1-6.8,0.1-10.2c0-0.9-0.6-1.4-1.4-1.4c-2.6,0-5.3,0-7.9,0c-1.1,0-1.6,0.5-1.6,1.6c0,3.3,0,6.5,0,9.8
		c0,0.2,0,0.3,0,0.5C5.4,31.7,5.9,31.7,6.5,31.7z"/>
	<path d="M35.5,41.5c0.8-1,1.9-1.2,3.1-1.2c1.5,0,3,0,4.5,0c1.9,0,3.2,1.3,3.2,3.2c0,0.6,0,1.3,0,1.9c0,0.6-0.2,0.8-0.8,0.8
		c-2.2,0-4.3,0-6.5,0c-7.9,0-15.8,0-23.7,0c-0.9,0-1-0.1-1-1c0-0.7,0-1.3,0-2c0.1-1.6,1.4-3,3.1-3c1.8,0,3.6,0,5.4,0
		c0.9,0,1.5,0.3,2.5,1.2c0.1-0.1,0.2-0.1,0.2-0.2c0.6-0.6,1.4-0.9,2.3-0.9c1.6,0,3.2,0,4.8,0C34,40.3,34.5,40.5,35.5,41.5z M26,44.9
		c3,0,5.9,0,8.9,0c0-0.5,0-0.9,0-1.4c0-1-0.7-1.8-1.7-1.8c-1.8,0-3.6,0-5.4,0c-0.9,0-1.6,0.7-1.7,1.5C25.9,43.7,26,44.3,26,44.9z
		 M36.2,44.9c3,0,5.9,0,8.9,0c0-0.6,0.1-1.1,0-1.7c-0.1-0.9-0.8-1.5-1.7-1.6c-1.8,0-3.6,0-5.4,0c-1,0-1.7,0.8-1.7,1.8
		C36.2,43.9,36.2,44.3,36.2,44.9z M24.7,44.9c0-0.5,0-0.9,0-1.4c0-1.1-0.7-1.8-1.8-1.9c-1.8,0-3.6,0-5.4,0c-0.9,0-1.6,0.6-1.7,1.5
		c-0.1,0.6,0,1.1,0,1.7C18.7,44.9,21.7,44.9,24.7,44.9z"/>
	<path d="M18.3,14.8c0-4.7,3.9-8.6,8.6-8.7c4.7,0,8.7,3.9,8.7,8.7c0,4.7-3.9,8.6-8.6,8.6C22.2,23.4,18.3,19.5,18.3,14.8z M26.3,7.5
		c-3.1-0.3-6.5,3.2-6.6,6.8c-0.2,4.3,3.2,7.8,7.5,7.7c3.4-0.1,7.1-3.3,6.9-6.1c-0.2,0-0.3,0-0.5,0c-2.1,0-4.2,0-6.3,0
		c-0.8,0-1-0.1-1-1c0-2.3,0-4.6,0-7C26.3,7.8,26.3,7.7,26.3,7.5z M27.6,7.6c0,2.3,0,4.6,0,7c2.2,0,4.4,0,6.6,0
		C34.2,11.1,31.2,7.7,27.6,7.6z"/>
	<path d="M13.9,14.1c0,1.9-1.6,3.5-3.6,3.5c-1.9,0-3.6-1.6-3.5-3.6c0-1.9,1.7-3.5,3.6-3.5C12.3,10.6,13.9,12.1,13.9,14.1z
		 M10.3,16.3c1.2,0,2.2-1,2.2-2.2c0-1.2-1-2.2-2.2-2.2c-1.2,0-2.2,1-2.2,2.2C8.1,15.3,9.1,16.3,10.3,16.3z"/>
	<path d="M40.6,32.9c1.6,0,2.9,1.3,2.9,2.9c0,1.6-1.3,2.9-2.9,2.9c-1.6,0-2.9-1.3-2.9-2.9C37.7,34.2,39.1,32.9,40.6,32.9z
		 M39.2,35.7c0,0.8,0.7,1.5,1.5,1.6c0.8,0,1.5-0.7,1.5-1.5c0-0.8-0.7-1.6-1.5-1.6C39.9,34.2,39.2,34.9,39.2,35.7z"/>
	<path d="M20.1,32.9c1.6,0,2.8,1.3,2.8,2.9c0,1.6-1.3,2.9-2.9,2.9c-1.6,0-2.9-1.3-2.9-2.9C17.2,34.2,18.6,32.8,20.1,32.9z
		 M20.2,34.2c-0.8,0-1.6,0.7-1.6,1.5c0,0.8,0.7,1.5,1.5,1.6c0.8,0,1.5-0.7,1.6-1.5C21.7,34.9,21,34.2,20.2,34.2z"/>
	<path d="M33.2,35.7c0,1.6-1.3,2.9-2.9,2.9c-1.6,0-2.9-1.3-2.9-2.9c0-1.5,1.3-2.8,2.9-2.8C32,32.8,33.2,34.1,33.2,35.7z M32,35.7
		c0-0.8-0.8-1.6-1.6-1.6c-0.8,0-1.5,0.7-1.5,1.5c0,0.8,0.7,1.6,1.5,1.6C31.2,37.3,32,36.6,32,35.7z"/>
	<path id="XMLID_2_" d="M38,27.4c-1.5,0-3,0-4.5,0c-0.4,0-0.7-0.1-0.8-0.5c-0.1-0.4,0.1-0.8,0.5-0.8c0.1,0,0.3,0,0.4,0
		c3,0,5.9,0,8.9,0c0.7,0,1,0.3,0.8,0.9c-0.1,0.4-0.4,0.5-0.8,0.5C41.1,27.4,39.5,27.4,38,27.4z"/>
	<path id="XMLID_1_" d="M38.1,22.7c1.5,0,3,0,4.5,0c0.6,0,0.9,0.4,0.7,0.9c-0.1,0.3-0.4,0.4-0.7,0.4c-2,0-4,0-6,0c-1,0-2.1,0-3.1,0
		c-0.5,0-0.8-0.2-0.8-0.6c0-0.4,0.3-0.7,0.8-0.7C35,22.7,36.6,22.7,38.1,22.7z"/>
</g>
<circle id="XMLID_11_" opacity="0.5" fill="#29A9E1" cx="12.3" cy="13.3" r="11.3"/>
</svg>
