<?xml version="1.0" encoding="utf-8"?>
<!-- Generator: Adobe Illustrator 19.0.0, SVG Export Plug-In . SVG Version: 6.00 Build 0)  -->
<svg version="1.0" id="Calque_1" xmlns="http://www.w3.org/2000/svg" xmlns:xlink="http://www.w3.org/1999/xlink" x="0px" y="0px"
	 viewBox="0 0 50 50" enable-background="new 0 0 50 50" xml:space="preserve">
<g>
	<path d="M15.3,27.2c0-0.6,0-1.1,0-1.6c-0.2,0-0.3,0-0.4,0c-1.5,0-2.9,0-4.4,0c-0.3,0-0.5,0.1-0.6,0.3c-0.4,0.4-0.7,0.9-1.1,1.3
		c-0.4,0.4-0.7,0.5-1,0.2c-0.3-0.3-0.3-0.6,0.1-1.1c0.5-0.5,0.9-1.1,1.4-1.6c0.2-0.3,0.5-0.4,0.9-0.4c1.6,0,3.1,0,4.7,0
		c0.2,0,0.3,0,0.5,0c0-0.5,0-1,0-1.6c-0.4,0-0.8,0-1.2,0c-1,0-2,0-3,0c-0.2,0-0.5-0.2-0.7-0.3C10,22,9.6,21.5,9.2,21.1
		c-0.1-0.1-0.4-0.2-0.6-0.3c-0.6,0-1.2,0-1.8,0c-0.3,0-0.4,0.1-0.6,0.3c-0.5,0.9-1.5,1.3-2.4,1c-0.9-0.3-1.5-1.2-1.4-2.2
		c0.1-1,0.9-1.8,1.9-1.8c0.9,0,1.5,0.3,1.9,1.1c0.1,0.3,0.3,0.3,0.6,0.3c0.7,0,1.5,0,2.2,0c0.4,0,0.7,0.1,0.9,0.4
		c0.4,0.5,0.8,1.2,1.4,1.5c0.6,0.3,1.3,0.1,2,0.1c0.7,0,1.3,0,2,0c0-0.5,0-1,0-1.6c-0.8,0-1.6,0-2.5,0c-0.7,0-1-0.2-1-0.6
		c0-0.4,0.3-0.6,1-0.6c0.8,0,1.6,0,2.4,0c0.1-0.6,0.3-1.1,0.4-1.6c-0.1,0-0.3,0-0.4,0c-2,0-4,0-6,0c-0.7,0-0.9-0.2-0.9-0.9
		c0-1.4,0-2.7,0-4.1c0-0.3,0-0.4-0.3-0.5C6.8,11,6.2,9.9,6.4,8.6c0.3-1.2,1.4-2,2.6-1.9c1.2,0.1,2.2,1,2.4,2.2
		c0.2,1.1-0.5,2.2-1.6,2.6c-0.3,0.1-0.3,0.2-0.3,0.5c0,1.2,0,2.4,0,3.5c0,0,0,0.1,0,0.1c0.1,0,0.3,0,0.4,0c2.2,0,4.4,0,6.6,0
		c0.2,0,0.5-0.1,0.6-0.3c0.8-0.8,1.7-1.6,2.5-2.5c0.6-0.6,1.3-0.9,2.1-0.9c0.9,0,1.7,0,2.6,0c0-0.1,0-0.3,0-0.4c0-1.3,0-2.7,0-4
		c0-0.3-0.1-0.4-0.4-0.5c-1.1-0.5-1.7-1.6-1.5-2.8c0.2-1.2,1.3-2,2.4-2.1c1.2,0,2.2,0.8,2.5,2c0.3,1.2-0.3,2.4-1.5,2.9
		c-0.1,0.1-0.3,0.2-0.3,0.3c0,1.5,0,3,0,4.6c0.2,0,0.3,0,0.5,0c2.3,0,4.5,0,6.8,0c1.1,0,1.7,0.6,1.7,1.7c0,0.6,0,1.2,0,1.8
		c1.9,0,3.8,0,5.8,0c0-1.3,0-2.6,0-3.9c0-0.1-0.2-0.2-0.4-0.3c-1-0.4-1.6-1.4-1.5-2.4c0.1-1,0.8-2,1.7-2.3C41.6,6.4,43,7,43.5,8.3
		c0.5,1.3-0.1,2.7-1.3,3.2c-0.4,0.1-0.4,0.3-0.4,0.7c0,1.3,0,2.7,0,4c0,0.7-0.2,0.9-0.9,0.9c-1.9,0-3.7,0-5.6,0c-0.2,0-0.3,0-0.5,0
		c0,0.5,0,1,0,1.6c0.7,0,1.4,0,2.1,0c0.2,0,0.4,0,0.7,0c0.4,0,0.7,0.3,0.6,0.7c0,0.4-0.3,0.6-0.7,0.6c-0.8,0-1.6,0-2.4,0
		c-0.1,0-0.2,0-0.4,0c0,0.5,0,1,0,1.6c0.1,0,0.2,0,0.3,0c1.1,0,2.3,0,3.4,0c0.2,0,0.4-0.1,0.5-0.2c0.4-0.4,0.7-0.8,1-1.2
		c0.3-0.4,0.7-0.5,1.2-0.5c0.7,0,1.4,0,2.1,0c0.2,0,0.4-0.1,0.5-0.3c0.5-0.9,1.4-1.3,2.4-1.1c0.9,0.2,1.5,1.1,1.5,2
		c0,0.9-0.7,1.8-1.6,2c-0.9,0.2-1.8-0.2-2.3-1.1c-0.1-0.2-0.3-0.3-0.5-0.3c-0.6,0-1.3,0-1.9,0c-0.2,0-0.4,0.1-0.5,0.2
		c-0.4,0.4-0.8,0.9-1.2,1.3c-0.2,0.2-0.5,0.3-0.8,0.3c-1.2,0-2.4,0-3.6,0c-0.2,0-0.3,0-0.5,0c0,0.5,0,1.1,0,1.6c0.2,0,0.3,0,0.5,0
		c1.6,0,3.1,0,4.7,0c0.4,0,0.7,0.1,0.9,0.4c0.5,0.6,0.9,1.1,1.4,1.6c0.3,0.4,0.3,0.7,0,1c-0.3,0.3-0.6,0.2-1-0.2
		c-0.4-0.5-0.8-1-1.2-1.4c-0.1-0.1-0.3-0.2-0.4-0.2c-1.6,0-3.3,0-4.9,0c0,0.5,0,1,0,1.6c0.5,0,0.9,0,1.4,0c0.9,0,1.8,0,2.7,0
		c0.3,0,0.6,0.1,0.8,0.4c0.3,0.4,0.7,0.8,1.1,1.3c0.2,0.3,0.4,0.3,0.7,0.3c0.5,0,1.1,0,1.6,0c0.3,0,0.6-0.1,0.7-0.4
		c0.4-0.8,1.4-1.2,2.3-1c0.9,0.2,1.5,1,1.6,1.9c0,0.9-0.5,1.7-1.4,2c-0.9,0.3-2-0.1-2.4-1c-0.1-0.3-0.3-0.3-0.5-0.3
		c-0.7,0-1.5,0-2.2,0c-0.4,0-0.7-0.1-0.9-0.4c-0.4-0.5-0.7-0.9-1.1-1.3c-0.1-0.1-0.3-0.2-0.4-0.2c-1.3,0-2.5,0-3.8,0
		c0,0.5,0,1,0,1.6c0.8,0,1.6,0,2.3,0c0.1,0,0.3,0,0.4,0c0.4,0,0.7,0.3,0.7,0.6c0,0.3-0.3,0.6-0.7,0.6c-0.8,0-1.6,0-2.3,0
		c-0.1,0-0.3,0-0.4,0c0,0.5,0,1,0,1.6c0.2,0,0.3,0,0.5,0c1.9,0,3.7,0,5.6,0c0.7,0,0.9,0.2,0.9,0.9c0,1.4,0,2.7,0,4.1
		c0,0.3,0.1,0.4,0.3,0.5c1.2,0.5,1.8,1.7,1.5,2.9c-0.3,1.2-1.3,2-2.6,2c-1.2,0-2.2-0.9-2.4-2.2c-0.2-1.1,0.4-2.2,1.5-2.7
		c0.3-0.1,0.4-0.3,0.4-0.6c0-1.2,0-2.4,0-3.6c-1.9,0-3.8,0-5.8,0c0,0.6,0,1.1,0,1.7c0,1.3-0.5,1.9-1.9,1.9c-2.2,0-4.4,0-6.6,0
		c-0.2,0-0.3,0-0.5,0c0,0.1,0,0.2,0,0.2c0,1.4,0,2.8,0,4.3c0,0.3,0.2,0.3,0.4,0.4c1.1,0.5,1.7,1.6,1.5,2.8c-0.2,1.2-1.3,2-2.4,2.1
		c-1.2,0-2.2-0.8-2.5-2c-0.3-1.2,0.3-2.4,1.5-2.9c0.3-0.1,0.4-0.3,0.4-0.6c0-1.4,0-2.9,0-4.4c-0.2,0-0.4,0-0.5,0c-2.3,0-4.5,0-6.8,0
		c-1.1,0-1.7-0.6-1.7-1.7c0-0.6,0-1.2,0-1.8c-1.9,0-3.8,0-5.7,0c0,0.1,0,0.2,0,0.3c0,1.2,0,2.3,0,3.5c0,0.2,0.1,0.4,0.3,0.5
		c1.2,0.5,1.8,1.7,1.5,3c-0.3,1.2-1.4,2-2.7,1.9c-1.2-0.1-2.2-1-2.3-2.3c-0.1-1,0.5-2.1,1.5-2.5c0.3-0.1,0.4-0.3,0.4-0.6
		c0-1.3,0-2.6,0-4c0-0.9,0.1-1,1-1c1.8,0,3.7,0,5.5,0c0.2,0,0.3,0,0.5,0c0-0.5,0-1,0-1.6c-0.8,0-1.5,0-2.3,0c-0.2,0-0.4,0-0.5,0
		c-0.4,0-0.6-0.2-0.6-0.6c0-0.4,0.3-0.6,0.7-0.6c0.9,0,1.8,0,2.8,0c0-0.5,0-1,0-1.6c-0.7,0-1.5,0-2.2,0c-0.6,0-1.3-0.2-1.8,0.1
		c-0.5,0.2-0.8,0.8-1.2,1.3c-0.3,0.5-0.7,0.6-1.3,0.6c-0.7,0-1.3,0-2,0c-0.2,0-0.4,0.1-0.5,0.3c-0.5,0.9-1.4,1.3-2.4,1.1
		c-0.9-0.2-1.5-1.1-1.5-2c0-0.9,0.7-1.8,1.6-2c0.9-0.2,1.8,0.2,2.3,1.1c0.1,0.2,0.3,0.3,0.5,0.3c0.6,0,1.3,0,1.9,0
		c0.2,0,0.4-0.1,0.5-0.2c0.4-0.4,0.8-0.9,1.2-1.3c0.2-0.2,0.5-0.3,0.8-0.4c1.2,0,2.4,0,3.6,0C14.9,27.2,15.1,27.2,15.3,27.2z
		 M33.4,25c0-3.7,0-7.3,0-11c0-0.6,0-0.6-0.6-0.6c-3.7,0-7.4,0-11,0c-0.6,0-1,0.2-1.4,0.6c-1.1,1.1-2.2,2.2-3.3,3.3
		c-0.4,0.4-0.6,0.8-0.6,1.4c0,5.8,0,11.5,0,17.3c0,0.6,0,0.6,0.6,0.6c5.2,0,10.4,0,15.6,0c0.6,0,0.6,0,0.6-0.6
		C33.4,32.3,33.4,28.7,33.4,25z M10.2,9.2c0-0.7-0.6-1.3-1.3-1.3c-0.7,0-1.2,0.6-1.3,1.3c0,0.7,0.6,1.3,1.3,1.3
		C9.6,10.5,10.2,9.9,10.2,9.2z M42.4,9.2c0-0.7-0.6-1.3-1.3-1.3c-0.7,0-1.3,0.6-1.3,1.2c0,0.7,0.6,1.3,1.3,1.3
		C41.8,10.5,42.4,9.9,42.4,9.2z M8.9,42.1c0.7,0,1.3-0.6,1.3-1.3c0-0.7-0.6-1.2-1.3-1.2c-0.7,0-1.3,0.6-1.3,1.3
		C7.6,41.5,8.2,42.1,8.9,42.1z M41.1,42.1c0.7,0,1.3-0.5,1.3-1.3c0-0.7-0.6-1.3-1.3-1.3c-0.7,0-1.3,0.6-1.3,1.2
		C39.8,41.5,40.4,42.1,41.1,42.1z M23.7,4.9c0,0.7,0.6,1.3,1.3,1.3c0.7,0,1.2-0.6,1.3-1.2c0-0.7-0.5-1.3-1.3-1.3
		C24.3,3.6,23.7,4.2,23.7,4.9z M23.7,45.1c0,0.7,0.6,1.3,1.3,1.3c0.7,0,1.3-0.6,1.3-1.3c0-0.7-0.6-1.2-1.3-1.2
		C24.3,43.8,23.7,44.4,23.7,45.1z M5.2,20.2c0-0.4-0.4-0.8-0.8-0.8c-0.4,0-0.8,0.4-0.8,0.8C3.6,20.6,4,21,4.4,21
		C4.9,21,5.2,20.6,5.2,20.2z M5.2,29.8c0-0.4-0.4-0.8-0.8-0.8c-0.4,0-0.8,0.3-0.8,0.8c0,0.4,0.4,0.8,0.8,0.8
		C4.9,30.6,5.2,30.3,5.2,29.8z M45.6,19.4c-0.4,0-0.8,0.4-0.8,0.8c0,0.4,0.4,0.8,0.8,0.8c0.4,0,0.8-0.3,0.8-0.8
		C46.4,19.8,46,19.4,45.6,19.4z M46.4,29.8c0-0.4-0.4-0.8-0.8-0.8c-0.4,0-0.8,0.4-0.8,0.8c0,0.4,0.4,0.8,0.8,0.8
		C46,30.6,46.4,30.3,46.4,29.8z"/>
	<path d="M31.8,25c0,3,0,6,0,9.1c0,0.7-0.2,0.9-0.9,0.9c-3.9,0-7.9,0-11.8,0c-0.7,0-0.9-0.2-0.9-0.9c0-5,0-10,0-15
		c0-0.4,0.1-0.7,0.4-0.9c1-0.9,1.9-1.9,2.8-2.8c0.2-0.2,0.5-0.3,0.8-0.3c2.9,0,5.9,0,8.8,0c0.7,0,0.8,0.2,0.8,0.9
		C31.8,18.9,31.8,22,31.8,25z M30.6,21.5c-0.2,0.2-0.3,0.3-0.4,0.4c-3.4,3.4-6.8,6.8-10.2,10.2c-0.5,0.5-0.5,1-0.4,1.7
		c0.3-0.1,0.5-0.1,0.7-0.3c3.4-3.4,6.8-6.8,10.2-10.2c0.1-0.1,0.2-0.2,0.2-0.4C30.6,22.5,30.6,22.1,30.6,21.5z M30,20.2
		c-0.3,0-0.6,0-0.9,0c-0.5-0.1-0.8,0.1-1.2,0.5c-2.7,2.7-5.3,5.4-8,8c-0.7,0.7-0.4,1.3-0.5,2.1C23,27.3,26.5,23.8,30,20.2z
		 M30.6,16.3c-1.6,0-3.2,0-4.8,0c-0.1,0-0.3,0.2-0.3,0.3c0,0.8,0,1.6,0,2.4c1.7,0,3.4,0,5.1,0C30.6,18,30.6,17.2,30.6,16.3z
		 M30.6,25.1c-2.9,2.9-5.7,5.7-8.6,8.6c0.3,0,0.7,0,1.1,0c0.2,0,0.4-0.1,0.5-0.2c2.3-2.2,4.5-4.5,6.8-6.8c0.1-0.1,0.2-0.2,0.2-0.4
		C30.6,25.9,30.6,25.5,30.6,25.1z M19.4,27.3c2.4-2.4,4.7-4.7,7.1-7.1c-0.4,0-0.8,0-1.3,0c-0.1,0-0.3,0.1-0.4,0.2
		c-1.8,1.7-3.5,3.5-5.2,5.2c-0.1,0.1-0.2,0.3-0.2,0.4C19.4,26.5,19.4,26.9,19.4,27.3z M19.4,24c0.1,0,0.1-0.1,0.2-0.1
		c1.5-1.5,3-3,4.4-4.4c0.1-0.1,0.1-0.2,0.2-0.3c0-0.5,0-0.9,0-1.5c-0.1,0.1-0.1,0.1-0.2,0.1c-1.5,1.5-2.9,2.9-4.4,4.4
		c-0.1,0.1-0.2,0.2-0.2,0.3C19.4,23,19.4,23.5,19.4,24z M30.6,28.5c-1.8,1.8-3.5,3.5-5.3,5.3c0.4,0,0.8,0,1.2,0
		c0.2,0,0.4-0.1,0.5-0.2c1.1-1.1,2.3-2.3,3.4-3.4c0.1-0.1,0.2-0.3,0.2-0.4C30.6,29.3,30.6,28.9,30.6,28.5z M19.4,20.5
		c1.4-1.4,2.8-2.8,4.2-4.2c-0.4,0-0.9,0-1.3,0c-0.1,0-0.2,0.1-0.3,0.1c-0.8,0.8-1.7,1.6-2.5,2.5c-0.1,0.1-0.2,0.2-0.2,0.3
		C19.4,19.7,19.4,20.1,19.4,20.5z M30.5,31.9c-0.6,0.6-1.2,1.2-1.8,1.8c0.6,0,1.2,0,1.8,0C30.5,33.1,30.5,32.4,30.5,31.9z"/>
</g>
<circle id="XMLID_11_" opacity="0.5" fill="#29A9E1" cx="14.3" cy="14.6" r="11.3"/>
</svg>
